<svg xmlns="http://www.w3.org/2000/svg" xmlns:xlink="http://www.w3.org/1999/xlink" contentStyleType="text/css" data-diagram-type="CLASS" height="757px" preserveAspectRatio="none" style="width:1146px;height:757px;background:#0B58A8;" version="1.1" viewBox="0 0 1146 757" width="1146px" zoomAndPan="magnify"><title>back</title><defs/><g><rect fill="#0B58A8" height="757" style="stroke:#FFFFFF00;stroke-width:1;" width="1146" x="0" y="0"/><text fill="#FFFFFF" font-family="Verdana" font-size="22" font-weight="bold" lengthAdjust="spacing" textLength="58.2656" x="539.5422" y="35.4209">back</text><!--class adresse--><g id="elem_adresse"><rect codeLine="7" fill="#0B58A8" height="140.0781" id="adresse" rx="2.5" ry="2.5" style="stroke:#FFFFFF;stroke-width:1;" width="156.8223" x="213.94" y="234.2394"/><text fill="#FFFFFF" font-family="Verdana" font-size="14" lengthAdjust="spacing" textLength="55.0361" x="264.8331" y="252.2345">adresse</text><line style="stroke:#FFFFFF;stroke-width:1;" x1="214.94" x2="369.7623" y1="260.5363" y2="260.5363"/><ellipse cx="224.94" cy="274.1847" fill="#0B58A8" rx="3" ry="3" style="stroke:#FFFFFF;stroke-width:1;"/><text fill="#FFFFFF" font-family="Verdana" font-size="14" lengthAdjust="spacing" textLength="72.0645" x="231.94" y="277.5314">id: integer</text><line style="stroke:#FFFFFF;stroke-width:1;" x1="214.94" x2="369.7623" y1="284.8331" y2="284.8331"/><text fill="#FFFFFF" font-family="Verdana" font-size="14" lengthAdjust="spacing" textLength="109.6006" x="231.94" y="301.8282">user_id: integer</text><text fill="#FFFFFF" font-family="Verdana" font-size="14" lengthAdjust="spacing" textLength="104.6855" x="231.94" y="318.1251">adress2: string</text><ellipse cx="224.94" cy="331.0753" fill="#0B58A8" rx="3" ry="3" style="stroke:#FFFFFF;stroke-width:1;"/><text fill="#FFFFFF" font-family="Verdana" font-size="14" lengthAdjust="spacing" textLength="132.8223" x="231.94" y="334.422">postal_code: string</text><ellipse cx="224.94" cy="347.3722" fill="#0B58A8" rx="3" ry="3" style="stroke:#FFFFFF;stroke-width:1;"/><text fill="#FFFFFF" font-family="Verdana" font-size="14" lengthAdjust="spacing" textLength="113.5723" x="231.94" y="350.7189">address1: string</text><ellipse cx="224.94" cy="363.6691" fill="#0B58A8" rx="3" ry="3" style="stroke:#FFFFFF;stroke-width:1;"/><text fill="#FFFFFF" font-family="Verdana" font-size="14" lengthAdjust="spacing" textLength="74.7168" x="231.94" y="367.0157">city: string</text></g><!--class historique--><g id="elem_historique"><rect codeLine="16" fill="#0B58A8" height="156.375" id="historique" rx="2.5" ry="2.5" style="stroke:#FFFFFF;stroke-width:1;" width="166.707" x="12" y="226.0894"/><text fill="#FFFFFF" font-family="Verdana" font-size="14" lengthAdjust="spacing" textLength="70.1299" x="60.2886" y="244.0845">historique</text><line style="stroke:#FFFFFF;stroke-width:1;" x1="13" x2="177.707" y1="252.3862" y2="252.3862"/><ellipse cx="23" cy="266.0347" fill="#0B58A8" rx="3" ry="3" style="stroke:#FFFFFF;stroke-width:1;"/><text fill="#FFFFFF" font-family="Verdana" font-size="14" lengthAdjust="spacing" textLength="72.0645" x="30" y="269.3814">id: integer</text><line style="stroke:#FFFFFF;stroke-width:1;" x1="13" x2="177.707" y1="276.6831" y2="276.6831"/><text fill="#FFFFFF" font-family="Verdana" font-size="14" lengthAdjust="spacing" textLength="109.6006" x="30" y="293.6782">user_id: integer</text><text fill="#FFFFFF" font-family="Verdana" font-size="14" lengthAdjust="spacing" textLength="77.5264" x="30" y="309.9751">etat: string</text><ellipse cx="23" cy="322.9253" fill="#0B58A8" rx="3" ry="3" style="stroke:#FFFFFF;stroke-width:1;"/><text fill="#FFFFFF" font-family="Verdana" font-size="14" lengthAdjust="spacing" textLength="92.4492" x="30" y="326.272">action: string</text><text fill="#FFFFFF" font-family="Verdana" font-size="14" lengthAdjust="spacing" textLength="142.707" x="30" y="342.5689">commentaire: string</text><ellipse cx="23" cy="355.5191" fill="#0B58A8" rx="3" ry="3" style="stroke:#FFFFFF;stroke-width:1;"/><text fill="#FFFFFF" font-family="Verdana" font-size="14" lengthAdjust="spacing" textLength="103.9336" x="30" y="358.8657">date: datetime</text><text fill="#FFFFFF" font-family="Verdana" font-size="14" lengthAdjust="spacing" textLength="126.4854" x="30" y="375.1626">detail_action: text</text></g><!--class cart_books--><g id="elem_cart_books"><rect codeLine="26" fill="#0B58A8" height="107.4844" id="cart_books" rx="2.5" ry="2.5" style="stroke:#FFFFFF;stroke-width:1;" width="150" x="990.35" y="250.5394"/><text fill="#FFFFFF" font-family="Verdana" font-size="14" lengthAdjust="spacing" textLength="75.9404" x="1027.3798" y="268.5345">cart_books</text><line style="stroke:#FFFFFF;stroke-width:1;" x1="991.35" x2="1139.35" y1="276.8362" y2="276.8362"/><ellipse cx="1001.35" cy="290.4847" fill="#0B58A8" rx="3" ry="3" style="stroke:#FFFFFF;stroke-width:1;"/><text fill="#FFFFFF" font-family="Verdana" font-size="14" lengthAdjust="spacing" textLength="72.0645" x="1008.35" y="293.8314">id: integer</text><line style="stroke:#FFFFFF;stroke-width:1;" x1="991.35" x2="1139.35" y1="301.1331" y2="301.1331"/><text fill="#FFFFFF" font-family="Verdana" font-size="14" lengthAdjust="spacing" textLength="106.5859" x="1008.35" y="318.1282">cart_id: integer</text><text fill="#FFFFFF" font-family="Verdana" font-size="14" lengthAdjust="spacing" textLength="113.1895" x="1008.35" y="334.4251">book_id: integer</text><ellipse cx="1001.35" cy="347.3753" fill="#0B58A8" rx="3" ry="3" style="stroke:#FFFFFF;stroke-width:1;"/><text fill="#FFFFFF" font-family="Verdana" font-size="14" lengthAdjust="spacing" textLength="117.6533" x="1008.35" y="350.722">quantity: integer</text></g><!--class user_address--><g id="elem_user_address"><rect codeLine="33" fill="#0B58A8" height="107.4844" id="user_address" rx="2.5" ry="2.5" style="stroke:#FFFFFF;stroke-width:1;" width="158.374" x="278.17" y="58.6094"/><text fill="#FFFFFF" font-family="Verdana" font-size="14" lengthAdjust="spacing" textLength="92.8457" x="310.9342" y="76.6045">user_address</text><line style="stroke:#FFFFFF;stroke-width:1;" x1="279.17" x2="435.544" y1="84.9063" y2="84.9063"/><ellipse cx="289.17" cy="98.5547" fill="#0B58A8" rx="3" ry="3" style="stroke:#FFFFFF;stroke-width:1;"/><text fill="#FFFFFF" font-family="Verdana" font-size="14" lengthAdjust="spacing" textLength="72.0645" x="296.17" y="101.9014">id: integer</text><line style="stroke:#FFFFFF;stroke-width:1;" x1="279.17" x2="435.544" y1="109.2031" y2="109.2031"/><text fill="#FFFFFF" font-family="Verdana" font-size="14" lengthAdjust="spacing" textLength="134.374" x="296.17" y="126.1982">address_id: integer</text><text fill="#FFFFFF" font-family="Verdana" font-size="14" lengthAdjust="spacing" textLength="109.6006" x="296.17" y="142.4951">user_id: integer</text><ellipse cx="289.17" cy="155.4453" fill="#0B58A8" rx="3" ry="3" style="stroke:#FFFFFF;stroke-width:1;"/><text fill="#FFFFFF" font-family="Verdana" font-size="14" lengthAdjust="spacing" textLength="83.2139" x="296.17" y="158.792">label: string</text></g><!--class user--><g id="elem_user"><rect codeLine="40" fill="#0B58A8" height="156.375" id="user" rx="2.5" ry="2.5" style="stroke:#FFFFFF;stroke-width:1;" width="222.9941" x="311.86" y="442.4694"/><text fill="#FFFFFF" font-family="Verdana" font-size="14" lengthAdjust="spacing" textLength="30.5361" x="408.089" y="460.4645">user</text><line style="stroke:#FFFFFF;stroke-width:1;" x1="312.86" x2="533.8541" y1="468.7662" y2="468.7662"/><ellipse cx="322.86" cy="482.4147" fill="#0B58A8" rx="3" ry="3" style="stroke:#FFFFFF;stroke-width:1;"/><text fill="#FFFFFF" font-family="Verdana" font-size="14" lengthAdjust="spacing" textLength="72.0645" x="329.86" y="485.7614">id: integer</text><line style="stroke:#FFFFFF;stroke-width:1;" x1="312.86" x2="533.8541" y1="493.0631" y2="493.0631"/><ellipse cx="322.86" cy="506.7116" fill="#0B58A8" rx="3" ry="3" style="stroke:#FFFFFF;stroke-width:1;"/><text fill="#FFFFFF" font-family="Verdana" font-size="14" lengthAdjust="spacing" textLength="79.8779" x="329.86" y="510.0582">uuid: string</text><ellipse cx="322.86" cy="523.0084" fill="#0B58A8" rx="3" ry="3" style="stroke:#FFFFFF;stroke-width:1;"/><text fill="#FFFFFF" font-family="Verdana" font-size="14" lengthAdjust="spacing" textLength="87.9648" x="329.86" y="526.3551">email: string</text><ellipse cx="322.86" cy="539.3053" fill="#0B58A8" rx="3" ry="3" style="stroke:#FFFFFF;stroke-width:1;"/><text fill="#FFFFFF" font-family="Verdana" font-size="14" lengthAdjust="spacing" textLength="123.416" x="329.86" y="542.652">first_name: string</text><ellipse cx="322.86" cy="555.6022" fill="#0B58A8" rx="3" ry="3" style="stroke:#FFFFFF;stroke-width:1;"/><text fill="#FFFFFF" font-family="Verdana" font-size="14" lengthAdjust="spacing" textLength="121.3105" x="329.86" y="558.9489">last_name: string</text><ellipse cx="322.86" cy="571.8991" fill="#0B58A8" rx="3" ry="3" style="stroke:#FFFFFF;stroke-width:1;"/><text fill="#FFFFFF" font-family="Verdana" font-size="14" lengthAdjust="spacing" textLength="71.9072" x="329.86" y="575.2457">roles: json</text><text fill="#FFFFFF" font-family="Verdana" font-size="14" lengthAdjust="spacing" textLength="198.9941" x="329.86" y="591.5426">last_connected_at: datetime</text></g><!--class book--><g id="elem_book"><rect codeLine="50" fill="#0B58A8" height="156.375" id="book" rx="2.5" ry="2.5" style="stroke:#FFFFFF;stroke-width:1;" width="294.9492" x="660.88" y="442.4694"/><text fill="#FFFFFF" font-family="Verdana" font-size="14" lengthAdjust="spacing" textLength="34.125" x="791.2921" y="460.4645">book</text><line style="stroke:#FFFFFF;stroke-width:1;" x1="661.88" x2="954.8292" y1="468.7662" y2="468.7662"/><ellipse cx="671.88" cy="482.4147" fill="#0B58A8" rx="3" ry="3" style="stroke:#FFFFFF;stroke-width:1;"/><text fill="#FFFFFF" font-family="Verdana" font-size="14" lengthAdjust="spacing" textLength="72.0645" x="678.88" y="485.7614">id: integer</text><line style="stroke:#FFFFFF;stroke-width:1;" x1="661.88" x2="954.8292" y1="493.0631" y2="493.0631"/><text fill="#FFFFFF" font-family="Verdana" font-size="14" lengthAdjust="spacing" textLength="125.2002" x="678.88" y="510.0582">author_id: integer</text><text fill="#FFFFFF" font-family="Verdana" font-size="14" lengthAdjust="spacing" textLength="78.2988" x="678.88" y="526.3551">isbn: string</text><ellipse cx="671.88" cy="539.3053" fill="#0B58A8" rx="3" ry="3" style="stroke:#FFFFFF;stroke-width:1;"/><text fill="#FFFFFF" font-family="Verdana" font-size="14" lengthAdjust="spacing" textLength="76.7266" x="678.88" y="542.652">title: string</text><ellipse cx="671.88" cy="555.6022" fill="#0B58A8" rx="3" ry="3" style="stroke:#FFFFFF;stroke-width:1;"/><text fill="#FFFFFF" font-family="Verdana" font-size="14" lengthAdjust="spacing" textLength="96.4414" x="678.88" y="558.9489">stock: integer</text><ellipse cx="671.88" cy="571.8991" fill="#0B58A8" rx="3" ry="3" style="stroke:#FFFFFF;stroke-width:1;"/><text fill="#FFFFFF" font-family="Verdana" font-size="14" lengthAdjust="spacing" textLength="114.8848" x="678.88" y="575.2457">description: text</text><ellipse cx="671.88" cy="588.1959" fill="#0B58A8" rx="3" ry="3" style="stroke:#FFFFFF;stroke-width:1;"/><text fill="#FFFFFF" font-family="Verdana" font-size="14" lengthAdjust="spacing" textLength="270.9492" x="678.88" y="591.5426">publication_date: datetime_immutable</text></g><!--class order--><g id="elem_order"><rect codeLine="60" fill="#0B58A8" height="91.1875" id="order" rx="2.5" ry="2.5" style="stroke:#FFFFFF;stroke-width:1;" width="150" x="476.35" y="258.6894"/><text fill="#FFFFFF" font-family="Verdana" font-size="14" lengthAdjust="spacing" textLength="37.5771" x="532.5614" y="276.6845">order</text><line style="stroke:#FFFFFF;stroke-width:1;" x1="477.35" x2="625.35" y1="284.9863" y2="284.9863"/><ellipse cx="487.35" cy="298.6347" fill="#0B58A8" rx="3" ry="3" style="stroke:#FFFFFF;stroke-width:1;"/><text fill="#FFFFFF" font-family="Verdana" font-size="14" lengthAdjust="spacing" textLength="72.0645" x="494.35" y="301.9814">id: integer</text><line style="stroke:#FFFFFF;stroke-width:1;" x1="477.35" x2="625.35" y1="309.2831" y2="309.2831"/><text fill="#FFFFFF" font-family="Verdana" font-size="14" lengthAdjust="spacing" textLength="117.5166" x="494.35" y="326.2782">client_id: integer</text><ellipse cx="487.35" cy="339.2284" fill="#0B58A8" rx="3" ry="3" style="stroke:#FFFFFF;stroke-width:1;"/><text fill="#FFFFFF" font-family="Verdana" font-size="14" lengthAdjust="spacing" textLength="92.374" x="494.35" y="342.5751">status: string</text></g><!--class author--><g id="elem_author"><rect codeLine="66" fill="#0B58A8" height="91.1875" id="author" rx="2.5" ry="2.5" style="stroke:#FFFFFF;stroke-width:1;" width="150" x="733.35" y="658.8394"/><text fill="#FFFFFF" font-family="Verdana" font-size="14" lengthAdjust="spacing" textLength="46.1357" x="785.2821" y="676.8345">author</text><line style="stroke:#FFFFFF;stroke-width:1;" x1="734.35" x2="882.35" y1="685.1362" y2="685.1362"/><ellipse cx="744.35" cy="698.7847" fill="#0B58A8" rx="3" ry="3" style="stroke:#FFFFFF;stroke-width:1;"/><text fill="#FFFFFF" font-family="Verdana" font-size="14" lengthAdjust="spacing" textLength="72.0645" x="751.35" y="702.1314">id: integer</text><line style="stroke:#FFFFFF;stroke-width:1;" x1="734.35" x2="882.35" y1="709.4331" y2="709.4331"/><ellipse cx="744.35" cy="723.0816" fill="#0B58A8" rx="3" ry="3" style="stroke:#FFFFFF;stroke-width:1;"/><text fill="#FFFFFF" font-family="Verdana" font-size="14" lengthAdjust="spacing" textLength="123.416" x="751.35" y="726.4282">first_name: string</text><ellipse cx="744.35" cy="739.3784" fill="#0B58A8" rx="3" ry="3" style="stroke:#FFFFFF;stroke-width:1;"/><text fill="#FFFFFF" font-family="Verdana" font-size="14" lengthAdjust="spacing" textLength="121.3105" x="751.35" y="742.7251">last_name: string</text></g><!--class cart--><g id="elem_cart"><rect codeLine="72" fill="#0B58A8" height="58.5938" id="cart" rx="2.5" ry="2.5" style="stroke:#FFFFFF;stroke-width:1;" width="150" x="990.35" y="491.3594"/><text fill="#FFFFFF" font-family="Verdana" font-size="14" lengthAdjust="spacing" textLength="27.5215" x="1051.5893" y="509.3545">cart</text><line style="stroke:#FFFFFF;stroke-width:1;" x1="991.35" x2="1139.35" y1="517.6563" y2="517.6563"/><ellipse cx="1001.35" cy="531.3047" fill="#0B58A8" rx="3" ry="3" style="stroke:#FFFFFF;stroke-width:1;"/><text fill="#FFFFFF" font-family="Verdana" font-size="14" lengthAdjust="spacing" textLength="72.0645" x="1008.35" y="534.6514">id: integer</text><line style="stroke:#FFFFFF;stroke-width:1;" x1="991.35" x2="1139.35" y1="541.9531" y2="541.9531"/></g><!--class review--><g id="elem_review"><rect codeLine="76" fill="#0B58A8" height="140.0781" id="review" rx="2.5" ry="2.5" style="stroke:#FFFFFF;stroke-width:1;" width="294.9492" x="660.88" y="234.2394"/><text fill="#FFFFFF" font-family="Verdana" font-size="14" lengthAdjust="spacing" textLength="46.6074" x="785.0509" y="252.2345">review</text><line style="stroke:#FFFFFF;stroke-width:1;" x1="661.88" x2="954.8292" y1="260.5363" y2="260.5363"/><ellipse cx="671.88" cy="274.1847" fill="#0B58A8" rx="3" ry="3" style="stroke:#FFFFFF;stroke-width:1;"/><text fill="#FFFFFF" font-family="Verdana" font-size="14" lengthAdjust="spacing" textLength="72.0645" x="678.88" y="277.5314">id: integer</text><line style="stroke:#FFFFFF;stroke-width:1;" x1="661.88" x2="954.8292" y1="284.8331" y2="284.8331"/><text fill="#FFFFFF" font-family="Verdana" font-size="14" lengthAdjust="spacing" textLength="109.6006" x="678.88" y="301.8282">user_id: integer</text><text fill="#FFFFFF" font-family="Verdana" font-size="14" lengthAdjust="spacing" textLength="113.1895" x="678.88" y="318.1251">book_id: integer</text><ellipse cx="671.88" cy="331.0753" fill="#0B58A8" rx="3" ry="3" style="stroke:#FFFFFF;stroke-width:1;"/><text fill="#FFFFFF" font-family="Verdana" font-size="14" lengthAdjust="spacing" textLength="106.1826" x="678.88" y="334.422">rating: smallint</text><ellipse cx="671.88" cy="347.3722" fill="#0B58A8" rx="3" ry="3" style="stroke:#FFFFFF;stroke-width:1;"/><text fill="#FFFFFF" font-family="Verdana" font-size="14" lengthAdjust="spacing" textLength="71.668" x="678.88" y="350.7189">body: text</text><ellipse cx="671.88" cy="363.6691" fill="#0B58A8" rx="3" ry="3" style="stroke:#FFFFFF;stroke-width:1;"/><text fill="#FFFFFF" font-family="Verdana" font-size="14" lengthAdjust="spacing" textLength="270.9492" x="678.88" y="367.0157">publication_date: datetime_immutable</text></g><!--link adresse to user--><g id="link_adresse_user"><path codeLine="85" d="M351.13,392.5294 C351.13,414.1294 351.13,405.0294 351.13,427.1394 " fill="#FFFFFF" fill-opacity="0.00000" id="adresse-user" style="stroke:#FFFFFF;stroke-width:1;"/><line style="stroke:#FFFFFF;stroke-width:1;" x1="351.13" x2="345.13" y1="382.5294" y2="374.5294"/><line style="stroke:#FFFFFF;stroke-width:1;" x1="351.13" x2="357.13" y1="382.5294" y2="374.5294"/><line style="stroke:#FFFFFF;stroke-width:1;" x1="351.13" x2="351.13" y1="382.5294" y2="374.5294"/><ellipse cx="351.13" cy="388.5294" fill="#FFFFFF" fill-opacity="0.00000" rx="4" ry="4" style="stroke:#FFFFFF;stroke-width:1;"/><line style="stroke:#FFFFFF;stroke-width:1;" x1="351.13" x2="351.13" y1="431.1394" y2="442.1394"/><ellipse cx="351.13" cy="431.1394" fill="#FFFFFF" fill-opacity="0.00000" rx="4" ry="4" style="stroke:#FFFFFF;stroke-width:1;"/><line style="stroke:#FFFFFF;stroke-width:1;" x1="355.13" x2="347.13" y1="438.1394" y2="438.1394"/></g><!--link historique to user--><g id="link_historique_user"><path codeLine="86" d="M196.94,379.0294 C264.87,379.0294 331.49,379.0294 331.49,379.0294 C331.49,379.0294 331.49,394.3794 331.49,426.9694 " fill="#FFFFFF" fill-opacity="0.00000" id="historique-user" style="stroke:#FFFFFF;stroke-width:1;"/><line style="stroke:#FFFFFF;stroke-width:1;" x1="186.94" x2="178.94" y1="379.0294" y2="385.0294"/><line style="stroke:#FFFFFF;stroke-width:1;" x1="186.94" x2="178.94" y1="379.0294" y2="373.0294"/><line style="stroke:#FFFFFF;stroke-width:1;" x1="186.94" x2="178.94" y1="379.0294" y2="379.0294"/><ellipse cx="192.94" cy="379.0294" fill="#FFFFFF" fill-opacity="0.00000" rx="4" ry="4" style="stroke:#FFFFFF;stroke-width:1;"/><line style="stroke:#FFFFFF;stroke-width:1;" x1="331.49" x2="331.49" y1="430.9694" y2="441.9694"/><ellipse cx="331.49" cy="430.9694" fill="#FFFFFF" fill-opacity="0.00000" rx="4" ry="4" style="stroke:#FFFFFF;stroke-width:1;"/><line style="stroke:#FFFFFF;stroke-width:1;" x1="335.49" x2="327.49" y1="437.9694" y2="437.9694"/></g><!--link cart_books to cart--><g id="link_cart_books_cart"><path codeLine="87" d="M1090.35,376.3194 C1090.35,418.2594 1090.35,441.8094 1090.35,475.8994 " fill="#FFFFFF" fill-opacity="0.00000" id="cart_books-cart" style="stroke:#FFFFFF;stroke-width:1;"/><line style="stroke:#FFFFFF;stroke-width:1;" x1="1090.35" x2="1084.35" y1="366.3194" y2="358.3194"/><line style="stroke:#FFFFFF;stroke-width:1;" x1="1090.35" x2="1096.35" y1="366.3194" y2="358.3194"/><line style="stroke:#FFFFFF;stroke-width:1;" x1="1090.35" x2="1090.35" y1="366.3194" y2="358.3194"/><ellipse cx="1090.35" cy="372.3194" fill="#FFFFFF" fill-opacity="0.00000" rx="4" ry="4" style="stroke:#FFFFFF;stroke-width:1;"/><line style="stroke:#FFFFFF;stroke-width:1;" x1="1090.35" x2="1090.35" y1="479.8994" y2="490.8994"/><ellipse cx="1090.35" cy="479.8994" fill="#FFFFFF" fill-opacity="0.00000" rx="4" ry="4" style="stroke:#FFFFFF;stroke-width:1;"/><line style="stroke:#FFFFFF;stroke-width:1;" x1="1094.35" x2="1086.35" y1="486.8994" y2="486.8994"/></g><!--link cart_books to book--><g id="link_cart_books_book"><path codeLine="88" d="M1040.35,376.4694 C1040.35,423.8194 1040.35,467.0294 1040.35,467.0294 C1040.35,467.0294 1016.88,467.0294 971.27,467.0294 " fill="#FFFFFF" fill-opacity="0.00000" id="cart_books-book" style="stroke:#FFFFFF;stroke-width:1;"/><line style="stroke:#FFFFFF;stroke-width:1;" x1="1040.35" x2="1034.35" y1="366.4694" y2="358.4694"/><line style="stroke:#FFFFFF;stroke-width:1;" x1="1040.35" x2="1046.35" y1="366.4694" y2="358.4694"/><line style="stroke:#FFFFFF;stroke-width:1;" x1="1040.35" x2="1040.35" y1="366.4694" y2="358.4694"/><ellipse cx="1040.35" cy="372.4694" fill="#FFFFFF" fill-opacity="0.00000" rx="4" ry="4" style="stroke:#FFFFFF;stroke-width:1;"/><line style="stroke:#FFFFFF;stroke-width:1;" x1="967.27" x2="956.27" y1="467.0294" y2="467.0294"/><ellipse cx="967.27" cy="467.0294" fill="#FFFFFF" fill-opacity="0.00000" rx="4" ry="4" style="stroke:#FFFFFF;stroke-width:1;"/><line style="stroke:#FFFFFF;stroke-width:1;" x1="960.27" x2="960.27" y1="471.0294" y2="463.0294"/></g><!--link user_address to adresse--><g id="link_user_address_adresse"><path codeLine="89" d="M324.47,184.5794 C324.47,205.5294 324.47,196.7794 324.47,219.0294 " fill="#FFFFFF" fill-opacity="0.00000" id="user_address-adresse" style="stroke:#FFFFFF;stroke-width:1;"/><line style="stroke:#FFFFFF;stroke-width:1;" x1="324.47" x2="318.47" y1="174.5794" y2="166.5794"/><line style="stroke:#FFFFFF;stroke-width:1;" x1="324.47" x2="330.47" y1="174.5794" y2="166.5794"/><line style="stroke:#FFFFFF;stroke-width:1;" x1="324.47" x2="324.47" y1="174.5794" y2="166.5794"/><ellipse cx="324.47" cy="180.5794" fill="#FFFFFF" fill-opacity="0.00000" rx="4" ry="4" style="stroke:#FFFFFF;stroke-width:1;"/><line style="stroke:#FFFFFF;stroke-width:1;" x1="324.47" x2="324.47" y1="223.0294" y2="234.0294"/><ellipse cx="324.47" cy="223.0294" fill="#FFFFFF" fill-opacity="0.00000" rx="4" ry="4" style="stroke:#FFFFFF;stroke-width:1;"/><line style="stroke:#FFFFFF;stroke-width:1;" x1="328.47" x2="320.47" y1="230.0294" y2="230.0294"/></g><!--link user_address to user--><g id="link_user_address_user"><path codeLine="90" d="M403.65,184.5694 C403.65,255.1794 403.65,346.1194 403.65,427.0394 " fill="#FFFFFF" fill-opacity="0.00000" id="user_address-user" style="stroke:#FFFFFF;stroke-width:1;"/><line style="stroke:#FFFFFF;stroke-width:1;" x1="403.65" x2="397.65" y1="174.5694" y2="166.5694"/><line style="stroke:#FFFFFF;stroke-width:1;" x1="403.65" x2="409.65" y1="174.5694" y2="166.5694"/><line style="stroke:#FFFFFF;stroke-width:1;" x1="403.65" x2="403.65" y1="174.5694" y2="166.5694"/><ellipse cx="403.65" cy="180.5694" fill="#FFFFFF" fill-opacity="0.00000" rx="4" ry="4" style="stroke:#FFFFFF;stroke-width:1;"/><line style="stroke:#FFFFFF;stroke-width:1;" x1="403.65" x2="403.65" y1="431.0394" y2="442.0394"/><ellipse cx="403.65" cy="431.0394" fill="#FFFFFF" fill-opacity="0.00000" rx="4" ry="4" style="stroke:#FFFFFF;stroke-width:1;"/><line style="stroke:#FFFFFF;stroke-width:1;" x1="407.65" x2="399.65" y1="438.0394" y2="438.0394"/></g><!--link book to author--><g id="link_book_author"><path codeLine="91" d="M808.35,617.1294 C808.35,637.3194 808.35,625.3994 808.35,643.3494 " fill="#FFFFFF" fill-opacity="0.00000" id="book-author" style="stroke:#FFFFFF;stroke-width:1;"/><line style="stroke:#FFFFFF;stroke-width:1;" x1="808.35" x2="802.35" y1="607.1294" y2="599.1294"/><line style="stroke:#FFFFFF;stroke-width:1;" x1="808.35" x2="814.35" y1="607.1294" y2="599.1294"/><line style="stroke:#FFFFFF;stroke-width:1;" x1="808.35" x2="808.35" y1="607.1294" y2="599.1294"/><ellipse cx="808.35" cy="613.1294" fill="#FFFFFF" fill-opacity="0.00000" rx="4" ry="4" style="stroke:#FFFFFF;stroke-width:1;"/><line style="stroke:#FFFFFF;stroke-width:1;" x1="808.35" x2="808.35" y1="647.3494" y2="658.3494"/><ellipse cx="808.35" cy="647.3494" fill="#FFFFFF" fill-opacity="0.00000" rx="4" ry="4" style="stroke:#FFFFFF;stroke-width:1;"/><line style="stroke:#FFFFFF;stroke-width:1;" x1="812.35" x2="804.35" y1="654.3494" y2="654.3494"/></g><!--link order to user--><g id="link_order_user"><path codeLine="92" d="M495.85,368.1694 C495.85,394.8394 495.85,396.1694 495.85,427.0294 " fill="#FFFFFF" fill-opacity="0.00000" id="order-user" style="stroke:#FFFFFF;stroke-width:1;"/><line style="stroke:#FFFFFF;stroke-width:1;" x1="495.85" x2="489.85" y1="358.1694" y2="350.1694"/><line style="stroke:#FFFFFF;stroke-width:1;" x1="495.85" x2="501.85" y1="358.1694" y2="350.1694"/><line style="stroke:#FFFFFF;stroke-width:1;" x1="495.85" x2="495.85" y1="358.1694" y2="350.1694"/><ellipse cx="495.85" cy="364.1694" fill="#FFFFFF" fill-opacity="0.00000" rx="4" ry="4" style="stroke:#FFFFFF;stroke-width:1;"/><line style="stroke:#FFFFFF;stroke-width:1;" x1="495.85" x2="495.85" y1="431.0294" y2="442.0294"/><ellipse cx="495.85" cy="431.0294" fill="#FFFFFF" fill-opacity="0.00000" rx="4" ry="4" style="stroke:#FFFFFF;stroke-width:1;"/><line style="stroke:#FFFFFF;stroke-width:1;" x1="499.85" x2="491.85" y1="438.0294" y2="438.0294"/></g><!--link review to user--><g id="link_review_user"><path codeLine="93" d="M642.56,363.0294 C569.75,363.0294 515.35,363.0294 515.35,363.0294 C515.35,363.0294 515.35,387.7394 515.35,427.2994 " fill="#FFFFFF" fill-opacity="0.00000" id="review-user" style="stroke:#FFFFFF;stroke-width:1;"/><line style="stroke:#FFFFFF;stroke-width:1;" x1="652.56" x2="660.56" y1="363.0294" y2="357.0294"/><line style="stroke:#FFFFFF;stroke-width:1;" x1="652.56" x2="660.56" y1="363.0294" y2="369.0294"/><line style="stroke:#FFFFFF;stroke-width:1;" x1="652.56" x2="660.56" y1="363.0294" y2="363.0294"/><ellipse cx="646.56" cy="363.0294" fill="#FFFFFF" fill-opacity="0.00000" rx="4" ry="4" style="stroke:#FFFFFF;stroke-width:1;"/><line style="stroke:#FFFFFF;stroke-width:1;" x1="515.35" x2="515.35" y1="431.2994" y2="442.2994"/><ellipse cx="515.35" cy="431.2994" fill="#FFFFFF" fill-opacity="0.00000" rx="4" ry="4" style="stroke:#FFFFFF;stroke-width:1;"/><line style="stroke:#FFFFFF;stroke-width:1;" x1="519.35" x2="511.35" y1="438.2994" y2="438.2994"/></g><!--link review to book--><g id="link_review_book"><path codeLine="94" d="M808.35,392.5294 C808.35,414.1294 808.35,405.0294 808.35,427.1394 " fill="#FFFFFF" fill-opacity="0.00000" id="review-book" style="stroke:#FFFFFF;stroke-width:1;"/><line style="stroke:#FFFFFF;stroke-width:1;" x1="808.35" x2="802.35" y1="382.5294" y2="374.5294"/><line style="stroke:#FFFFFF;stroke-width:1;" x1="808.35" x2="814.35" y1="382.5294" y2="374.5294"/><line style="stroke:#FFFFFF;stroke-width:1;" x1="808.35" x2="808.35" y1="382.5294" y2="374.5294"/><ellipse cx="808.35" cy="388.5294" fill="#FFFFFF" fill-opacity="0.00000" rx="4" ry="4" style="stroke:#FFFFFF;stroke-width:1;"/><line style="stroke:#FFFFFF;stroke-width:1;" x1="808.35" x2="808.35" y1="431.1394" y2="442.1394"/><ellipse cx="808.35" cy="431.1394" fill="#FFFFFF" fill-opacity="0.00000" rx="4" ry="4" style="stroke:#FFFFFF;stroke-width:1;"/><line style="stroke:#FFFFFF;stroke-width:1;" x1="812.35" x2="804.35" y1="438.1394" y2="438.1394"/></g><!--SRC=[bLGzZzim3DtrAzWrG81UWIvPkxReKg2ZGKjip4OVFedkNT3UVw_aE3xveWBfOe2F51_r-EI13G6vKSxWoFKKaneAf3bgIogTs8yOqS4NzfyiflITZGpmyF5zbVlCdhwTHuAlKOQWXCKIzAXFwfqCv0ZGyH4L-Pmv0vf8AH7yLZjWSm3sGaUAQhzNC2MANGqkrHyEa2IoF-OpOqY2jjF1K8MYcGiVAaXdjZLykT8Fd2H4VfpkdO04fIRImi6l0EZWN6wD7Ejn34eEorVOaGAJkx3jheU5dkLr98rHkZw4KsgEDASt8vNQ3RA3nmddPg_Osdw-qg9Fas39RJbkXDY1nPxihQAbijLt1zDKe5KKSbc3Alx1CKddqTNAPPFTO35OIWVucO9Nbm8Tl2SjPBgod5NdTQQYKFkkKxRecmrpwdt5DlktYhDVzAdMmL3IaSTgbTcLKszPOy6wxV8xTcuIx6qrNeYchHbeoxdcZV3Py3AbM-KlbsbhVwUu6nEsEgq5aNunFTtvQ1eEZLaSVyp43gtDS8RwOCx_g-3rz_4IzllmPwPMrPkkuUfTBN116d09rEQPB8c5h9cRAMQVNOldRQZBRkkYHRb_GwNBNm00]--></g></svg>